<?xml version="1.0" encoding="UTF-8"?>
<svg id="Layer_1" data-name="Layer 1" xmlns="http://www.w3.org/2000/svg" viewBox="0 0 733.99 126.25">
  <defs>
    <style>
      .cls-1 {
        fill: #fff;
      }

      .cls-2 {
        fill: #e2dddb;
      }

      .cls-3 {
        fill: #f5333f;
      }

      .cls-4 {
        fill: #00ae42;
      }

      .cls-5 {
        fill: #2d2a26;
      }
    </style>
  </defs>
  <g id="UAEMMAF_White_H" data-name="UAEMMAF White H">
    <g>
      <g>
        <path class="cls-1" d="m667.92,22.69c0,10.94,8.36,20.19,18.27,20.19h44.34s-.53-1.49-.53-1.49c-2.81-7.89-7.09-15.07-12.71-21.32l-.33-.37h-46.9v-.75c0-8.31-4.98-15.69-12.68-18.81l-.31-.13-.33.07c-13.53,2.75-25.59,9.67-34.88,20l-1.68,1.87h47.75v.75Z"/>
        <path class="cls-1" d="m670.19,62.34v-.73c0-11.03-8.43-20.34-18.42-20.34h-42.55s-.26.76-.26.76c-2.34,6.75-3.52,13.83-3.52,21.03v1.55h62.63v.39c0,10.96,8.38,20.23,18.3,20.23h43.69s.26-.75.26-.75c2.38-6.74,3.61-13.8,3.66-21v-1.13s-63.79-.01-63.79-.01Z"/>
        <path class="cls-1" d="m670.19,103.81c0-11.02-8.43-20.33-18.43-20.33h-43.03s.54,1.49.54,1.49c2.89,7.97,7.27,15.19,13.02,21.47l.33.36h45.44v.32c0,8.39,5.27,16.03,13.12,19.01l.3.11.31-.06c13.48-2.56,26.04-9.58,35.36-19.76l1.71-1.87h-48.67v-.75Z"/>
        <path class="cls-3" d="m668.93,18.94c0-8.04-4.95-14.93-11.98-17.78-13.49,2.74-25.41,9.79-34.27,19.65h46.25v-1.87Z"/>
        <path class="cls-4" d="m669.04,22.69c0,9.91,7.53,19.08,17.15,19.07h42.75c-2.78-7.8-7.06-14.9-12.49-20.94h-47.41v1.87Z"/>
        <path class="cls-3" d="m669.07,61.61c0-9.93-7.65-19.22-17.3-19.22h-41.75c-2.24,6.48-3.46,13.43-3.46,20.67,0,.15,0,.29,0,.43h62.51v-1.88Z"/>
        <path class="cls-2" d="m669.18,65c0,9.93,7.54,19.11,17.18,19.11,0,0,23.41,0,42.9,0,2.28-6.46,3.55-13.4,3.59-20.64h-63.68s0,1.53,0,1.53Z"/>
        <path class="cls-3" d="m669.07,103.81c0-9.93-7.55-19.22-17.32-19.21h-41.43c2.86,7.87,7.24,15.02,12.79,21.09h45.96v-1.88Z"/>
        <path class="cls-5" d="m669.18,107.13c0,8.21,5.15,15.21,12.4,17.96,13.64-2.59,25.73-9.57,34.74-19.42h-47.13v1.46Z"/>
      </g>
      <g>
        <path d="m38.52,85.75C11.56,85.75,0,75.1,0,52.89v-31.77h22.76v31.77c0,6.83,2.36,12.84,15.76,12.84s15.76-6.1,15.76-12.84v-31.77h22.76v31.77c0,22.12-11.64,32.86-38.52,32.86Z"/>
        <path d="m130.18,73.37h-26.09l-4.2,11.47h-25.04l25.39-63.72h33.79l25.39,63.72h-25.04l-4.2-11.47Zm-5.95-16.39l-7.09-19.48-7.09,19.48h14.18Z"/>
        <path d="m186.98,39.33v5.92h42.02v15.48h-42.02v5.92h42.02v18.21h-64.79V21.12h64.79v18.21h-42.02Z"/>
        <path d="m328.54,84.84h-22.76v-30.31l-16.72,30.31h-14.88l-16.72-30.31v30.31h-22.76V21.12h28.02l18.91,36.41,18.91-36.41h28.02v63.72Z"/>
        <path d="m428.94,84.84h-22.76v-30.31l-16.72,30.31h-14.88l-16.72-30.31v30.31h-22.76V21.12h28.02l18.91,36.41,18.91-36.41h28.02v63.72Z"/>
        <path d="m489.07,73.37h-26.09l-4.2,11.47h-25.04l25.39-63.72h33.79l25.39,63.72h-25.04l-4.2-11.47Zm-5.95-16.39l-7.09-19.48-7.09,19.48h14.18Z"/>
        <path d="m545.88,41.15v6.83h36.77v20.03h-36.77v16.84h-22.76V21.12h64.79v20.03h-42.02Z"/>
      </g>
      <path class="cls-3" d="m.62,101.9c0-.11.05-.16.16-.16h2.77c.11,0,.16.05.16.16v15.02c0,1.4.51,2.64,1.51,3.71,1,1.08,2.2,1.62,3.58,1.62s2.55-.54,3.53-1.62c.99-1.07,1.48-2.31,1.48-3.71v-15.02c0-.11.05-.16.16-.16h2.77c.11,0,.18.05.18.16v15.02c.1,4.43-3.68,8.2-8.12,8.1-2.28,0-4.2-.78-5.8-2.36-1.59-1.58-2.39-3.49-2.39-5.75v-15.02Z"/>
      <path class="cls-3" d="m27.77,101.9c.03-.11.1-.16.19-.16h4.01c.11,0,.18.05.21.16l7.6,22.64c.02.08-.05.16-.16.16h-3.07c-.08,0-.13-.05-.16-.16l-1.5-4.67c-.02-.11-.1-.16-.24-.16h-9.46c-.1,0-.16.05-.19.16l-1.53,4.67c-.03.11-.08.16-.16.16h-3.04c-.1,0-.22-.03-.19-.16l7.69-22.64Zm-1.82,15.05s-.02.05-.02.06c0,.06.05.1.14.1h7.72c.1,0,.14-.03.14-.1,0-.02,0-.05-.02-.06l-3.81-11.94c-.06-.19-.27-.19-.33,0l-3.84,11.94Z"/>
      <path class="cls-3" d="m42.93,101.9c0-.11.05-.16.16-.16h15.68c.11,0,.18.05.18.16v2.45c0,.11-.06.16-.18.16h-12.58c-.11,0-.16.06-.16.18v6.64c0,.11.05.18.16.18h11.24c.11,0,.18.05.18.16v2.44c0,.11-.06.18-.18.18h-11.24c-.11,0-.16.05-.16.16v7.34c0,.11.05.16.16.16h12.58c.11,0,.18.05.18.16v2.45c0,.11-.06.16-.18.16h-15.68c-.11,0-.16-.05-.16-.16v-22.64Z"/>
      <path d="m70.25,101.9c0-.11.05-.16.16-.16h5.29c.1,0,.18.05.22.16l5.81,19.57c.06.14.25.14.32,0l5.81-19.57c.05-.11.13-.16.22-.16h5.29c.11,0,.16.05.16.16v22.64c0,.11-.05.16-.16.16h-2.77c-.11,0-.16-.05-.16-.16v-19.54c0-.21-.29-.21-.33-.03l-5.73,19.57c-.03.11-.13.16-.27.16h-4.43c-.14,0-.22-.05-.25-.16l-5.75-19.57c-.06-.19-.32-.16-.32.03v19.54c0,.11-.06.16-.18.16h-2.77c-.11,0-.16-.05-.16-.16v-22.64Z"/>
      <path d="m97.96,101.9c0-.11.05-.16.16-.16h2.77c.11,0,.18.05.18.16v22.64c0,.11-.06.16-.18.16h-2.77c-.11,0-.16-.05-.16-.16v-22.64Z"/>
      <path d="m104.55,124.55l7.5-11.19c.05-.08.05-.18,0-.25l-7.5-11.19s-.03-.05-.03-.06,0-.03.02-.05c.02-.03.06-.05.11-.05h3.3c.1,0,.18.05.25.16l5.57,8.61c.11.14.22.14.33,0l5.6-8.61c.08-.11.19-.16.32-.16h3.23s.1.02.11.05c.02.02.03.06-.02.11l-7.5,11.19c-.05.08-.05.18,0,.25l7.5,11.19s.03.05.03.06,0,.03-.02.05c-.02.03-.06.05-.11.05h-3.33c-.08,0-.14-.05-.22-.16l-5.6-8.61c-.11-.14-.22-.14-.33,0-.49.78-1.19,1.89-2.12,3.33-.94,1.43-1.74,2.68-2.42,3.73l-1.03,1.56c-.08.11-.16.16-.25.16h-3.3s-.1-.02-.11-.05c-.02-.02-.03-.06.02-.11Z"/>
      <path d="m126.38,101.9c0-.11.05-.16.16-.16h15.68c.11,0,.18.05.18.16v2.45c0,.11-.06.16-.18.16h-12.58c-.11,0-.16.06-.16.18v6.64c0,.11.05.18.16.18h11.24c.11,0,.18.05.18.16v2.44c0,.11-.06.18-.18.18h-11.24c-.11,0-.16.05-.16.16v7.34c0,.11.05.16.16.16h12.58c.11,0,.18.05.18.16v2.45c0,.11-.06.16-.18.16h-15.68c-.11,0-.16-.05-.16-.16v-22.64Z"/>
      <path d="m146.2,101.9c0-.11.05-.16.16-.16h8.42c3.36.02,6.02,1.21,7.69,3.3,1.66,2.09,2.52,4.95,2.52,8.41s-.86,6.29-2.58,8.28c-1.74,1.99-4.27,2.98-7.63,2.98h-8.42c-.11,0-.16-.05-.16-.16v-22.64Zm3.1,19.87c0,.11.05.16.16.16h5.32c4.39,0,6.94-2.99,6.94-8.49,0-2.74-.62-4.92-1.85-6.53s-2.93-2.4-5.1-2.4h-5.32c-.11,0-.16.06-.16.18v17.09Z"/>
      <path d="m175.96,101.9c0-.11.05-.16.16-.16h5.29c.1,0,.18.05.22.16l5.81,19.57c.06.14.25.14.32,0l5.81-19.57c.05-.11.13-.16.22-.16h5.29c.11,0,.16.05.16.16v22.64c0,.11-.05.16-.16.16h-2.77c-.11,0-.16-.05-.16-.16v-19.54c0-.21-.29-.21-.33-.03l-5.73,19.57c-.03.11-.13.16-.27.16h-4.43c-.14,0-.22-.05-.25-.16l-5.75-19.57c-.06-.19-.32-.16-.32.03v19.54c0,.11-.06.16-.18.16h-2.77c-.11,0-.16-.05-.16-.16v-22.64Z"/>
      <path d="m210.58,101.9c.03-.11.1-.16.19-.16h4.01c.11,0,.18.05.21.16l7.6,22.64c.02.08-.05.16-.16.16h-3.07c-.08,0-.13-.05-.16-.16l-1.5-4.67c-.02-.11-.1-.16-.24-.16h-9.46c-.1,0-.16.05-.19.16l-1.53,4.67c-.03.11-.08.16-.16.16h-3.04c-.1,0-.22-.03-.19-.16l7.69-22.64Zm-1.82,15.05s-.02.05-.02.06c0,.06.05.1.14.1h7.72c.1,0,.14-.03.14-.1,0-.02,0-.05-.02-.06l-3.81-11.94c-.06-.19-.27-.19-.33,0l-3.84,11.94Z"/>
      <path d="m226.07,101.9c0-.11.05-.16.16-.16h9.52c3.5-.1,6.74,3.2,6.66,6.97,0,1.39-.35,2.63-1.07,3.74-.72,1.13-1.66,1.96-2.82,2.5-.1.05-.11.11-.06.22l4.17,9.36s.02.05.02.06c0,.06-.06.1-.18.1h-2.71c-.16,0-.27-.05-.33-.16l-3.92-8.81c-.03-.11-.11-.16-.22-.16h-5.97c-.11,0-.16.05-.16.16v8.81c0,.11-.05.16-.16.16h-2.77c-.11,0-.16-.05-.16-.16v-22.64Zm3.09,10.73c0,.11.05.16.16.16h6.16c1-.03,1.89-.45,2.68-1.24.76-.8,1.15-1.74,1.15-2.83s-.4-2.1-1.19-2.95c-.81-.84-1.72-1.26-2.75-1.26h-6.03c-.11,0-.16.06-.16.18v7.95Z"/>
      <path d="m243.47,101.9c0-.11.05-.16.16-.16h16c.11,0,.18.05.18.16v2.45c0,.11-.06.16-.18.16h-6.29c-.11,0-.16.06-.16.18v19.86c0,.11-.05.16-.16.16h-2.77c-.11,0-.18-.05-.18-.16v-19.9c-.05-.08-.1-.13-.16-.13h-6.29c-.11,0-.16-.05-.16-.16v-2.45Z"/>
      <path d="m262.6,101.9c0-.11.05-.16.16-.16h2.77c.11,0,.18.05.18.16v22.64c0,.11-.06.16-.18.16h-2.77c-.11,0-.16-.05-.16-.16v-22.64Z"/>
      <path d="m277.04,101.9c.03-.11.1-.16.19-.16h4.01c.11,0,.18.05.21.16l7.6,22.64c.02.08-.05.16-.16.16h-3.07c-.08,0-.13-.05-.16-.16l-1.5-4.67c-.02-.11-.1-.16-.24-.16h-9.46c-.1,0-.16.05-.19.16l-1.53,4.67c-.03.11-.08.16-.16.16h-3.04c-.1,0-.22-.03-.19-.16l7.69-22.64Zm-1.82,15.05s-.02.05-.02.06c0,.06.05.1.14.1h7.72c.1,0,.14-.03.14-.1,0-.02,0-.05-.02-.06l-3.81-11.94c-.06-.19-.27-.19-.33,0l-3.84,11.94Z"/>
      <path d="m292.39,101.9c0-.11.06-.16.18-.16h2.77c.11,0,.16.05.16.16v19.87c0,.11.05.16.16.16h11.42c.11,0,.16.05.16.16v2.45c0,.11-.05.16-.16.16h-14.51c-.11,0-.18-.05-.18-.16v-22.64Z"/>
      <path d="m323.29,101.9c.03-.11.1-.16.19-.16h4.01c.11,0,.18.05.21.16l7.6,22.64c.02.08-.05.16-.16.16h-3.07c-.08,0-.13-.05-.16-.16l-1.5-4.67c-.02-.11-.09-.16-.24-.16h-9.46c-.1,0-.16.05-.19.16l-1.53,4.67c-.03.11-.08.16-.16.16h-3.04c-.1,0-.22-.03-.19-.16l7.69-22.64Zm-1.82,15.05s-.02.05-.02.06c0,.06.05.1.14.1h7.72c.1,0,.14-.03.14-.1,0-.02,0-.05-.02-.06l-3.81-11.94c-.06-.19-.27-.19-.33,0l-3.84,11.94Z"/>
      <path d="m338.79,101.9c0-.11.05-.16.16-.16h9.52c3.5-.1,6.74,3.2,6.66,6.97,0,1.39-.35,2.63-1.07,3.74-.72,1.13-1.66,1.96-2.82,2.5-.1.05-.11.11-.06.22l4.17,9.36s.02.05.02.06c0,.06-.06.1-.17.1h-2.71c-.16,0-.27-.05-.33-.16l-3.92-8.81c-.03-.11-.11-.16-.22-.16h-5.97c-.11,0-.16.05-.16.16v8.81c0,.11-.05.16-.16.16h-2.77c-.11,0-.16-.05-.16-.16v-22.64Zm3.09,10.73c0,.11.05.16.16.16h6.16c1-.03,1.89-.45,2.68-1.24.76-.8,1.15-1.74,1.15-2.83s-.4-2.1-1.2-2.95c-.81-.84-1.72-1.26-2.75-1.26h-6.04c-.11,0-.16.06-.16.18v7.95Z"/>
      <path d="m356.19,101.9c0-.11.05-.16.16-.16h16c.11,0,.18.05.18.16v2.45c0,.11-.06.16-.18.16h-6.29c-.11,0-.16.06-.16.18v19.86c0,.11-.05.16-.16.16h-2.77c-.11,0-.18-.05-.18-.16v-19.9c-.05-.08-.1-.13-.16-.13h-6.29c-.11,0-.16-.05-.16-.16v-2.45Z"/>
      <path d="m374.21,118.24h2.9c.08,0,.19.1.19.21,0,.84.48,1.75,1.34,2.5.86.76,2.34,1.31,4.11,1.31,1.67,0,2.99-.38,3.98-1.16.97-.78,1.46-1.72,1.46-2.85-.06-1.74-.87-2.69-2.31-3.18-1.02-.37-1.85-.49-3.14-.62-1.2-.13-2.04-.25-3.23-.57-1.19-.32-2.04-.7-2.94-1.35-1.29-.92-2.13-2.39-2.13-4.54,0-1.34.4-2.52,1.18-3.53.78-1,1.77-1.77,2.96-2.26s2.47-.75,3.82-.75c2.12,0,4.04.56,5.57,1.61,1.51,1.05,2.53,2.83,2.61,5,0,.11-.05.18-.16.18h-2.95c-.11,0-.16-.06-.16-.18,0-1.1-.46-2.02-1.39-2.75-.92-.72-2.1-1.08-3.53-1.08-1.31,0-2.42.35-3.33,1.07-.91.72-1.37,1.62-1.37,2.71.09,1.59.89,2.4,2.32,2.83,1.05.33,1.55.4,2.72.53,1.39.18,2.31.3,3.58.64s2.12.73,3.04,1.43c1.32,1,2.04,2.52,2.09,4.84,0,1.99-.89,3.98-2.9,5.33-1.3.88-3.38,1.45-5.81,1.45-2.74,0-5.03-.76-6.46-1.99-1.43-1.21-2.23-2.83-2.23-4.62,0-.11.05-.18.16-.18Z"/>
      <path d="m402.44,101.9c0-.11.06-.16.18-.16h14.51c.11,0,.16.05.16.16v2.45c0,.11-.05.16-.16.16h-11.42c-.11,0-.16.06-.16.18v6.64c0,.11.05.18.16.18h10.08c.11,0,.16.05.16.16v2.44c0,.11-.05.18-.16.18h-10.08c-.11,0-.16.05-.16.16v10.11c0,.11-.05.16-.16.16h-2.77c-.11,0-.18-.05-.18-.16v-22.64Z"/>
      <path d="m419.76,101.9c0-.11.05-.16.16-.16h15.68c.11,0,.17.05.17.16v2.45c0,.11-.06.16-.17.16h-12.58c-.11,0-.16.06-.16.18v6.64c0,.11.05.18.16.18h11.24c.11,0,.17.05.17.16v2.44c0,.11-.06.18-.17.18h-11.24c-.11,0-.16.05-.16.16v7.34c0,.11.05.16.16.16h12.58c.11,0,.17.05.17.16v2.45c0,.11-.06.16-.17.16h-15.68c-.11,0-.16-.05-.16-.16v-22.64Z"/>
      <path d="m439.58,101.9c0-.11.05-.16.16-.16h8.42c3.36.02,6.02,1.21,7.69,3.3,1.66,2.09,2.51,4.95,2.51,8.41s-.86,6.29-2.58,8.28c-1.74,1.99-4.27,2.98-7.63,2.98h-8.42c-.11,0-.16-.05-.16-.16v-22.64Zm3.11,19.87c0,.11.05.16.16.16h5.32c4.39,0,6.94-2.99,6.94-8.49,0-2.74-.62-4.92-1.85-6.53-1.23-1.61-2.93-2.4-5.1-2.4h-5.32c-.11,0-.16.06-.16.18v17.09Z"/>
      <path d="m461.8,101.9c0-.11.05-.16.16-.16h15.68c.11,0,.18.05.18.16v2.45c0,.11-.06.16-.18.16h-12.58c-.11,0-.16.06-.16.18v6.64c0,.11.05.18.16.18h11.24c.11,0,.18.05.18.16v2.44c0,.11-.06.18-.18.18h-11.24c-.11,0-.16.05-.16.16v7.34c0,.11.05.16.16.16h12.58c.11,0,.18.05.18.16v2.45c0,.11-.06.16-.18.16h-15.68c-.11,0-.16-.05-.16-.16v-22.64Z"/>
      <path d="m481.93,101.9c0-.11.05-.16.16-.16h9.52c3.5-.1,6.74,3.2,6.66,6.97,0,1.39-.35,2.63-1.07,3.74-.72,1.13-1.66,1.96-2.82,2.5-.1.05-.11.11-.06.22l4.17,9.36s.02.05.02.06c0,.06-.06.1-.17.1h-2.71c-.16,0-.27-.05-.33-.16l-3.92-8.81c-.03-.11-.11-.16-.22-.16h-5.97c-.11,0-.16.05-.16.16v8.81c0,.11-.05.16-.16.16h-2.77c-.11,0-.16-.05-.16-.16v-22.64Zm3.09,10.73c0,.11.05.16.16.16h6.16c1-.03,1.89-.45,2.68-1.24.76-.8,1.15-1.74,1.15-2.83s-.4-2.1-1.2-2.95c-.81-.84-1.72-1.26-2.75-1.26h-6.04c-.11,0-.16.06-.16.18v7.95Z"/>
      <path d="m508.19,101.9c.03-.11.1-.16.19-.16h4.01c.11,0,.18.05.21.16l7.6,22.64c.02.08-.05.16-.16.16h-3.07c-.08,0-.13-.05-.16-.16l-1.5-4.67c-.02-.11-.1-.16-.24-.16h-9.46c-.1,0-.16.05-.19.16l-1.53,4.67c-.03.11-.08.16-.16.16h-3.04c-.1,0-.22-.03-.19-.16l7.69-22.64Zm-1.81,15.05s-.02.05-.02.06c0,.06.05.1.14.1h7.72c.1,0,.14-.03.14-.1,0-.02,0-.05-.02-.06l-3.81-11.94c-.06-.19-.27-.19-.33,0l-3.84,11.94Z"/>
      <path d="m519.76,101.9c0-.11.05-.16.16-.16h16c.11,0,.18.05.18.16v2.45c0,.11-.06.16-.18.16h-6.29c-.11,0-.16.06-.16.18v19.86c0,.11-.05.16-.16.16h-2.77c-.11,0-.18-.05-.18-.16v-19.9c-.05-.08-.1-.13-.16-.13h-6.29c-.11,0-.16-.05-.16-.16v-2.45Z"/>
      <path d="m538.89,101.9c0-.11.05-.16.16-.16h2.77c.11,0,.17.05.17.16v22.64c0,.11-.06.16-.17.16h-2.77c-.11,0-.16-.05-.16-.16v-22.64Z"/>
      <path d="m545.45,113.22c0-2.34.38-4.38,1.13-6.13.75-1.75,1.91-3.14,3.49-4.16,1.56-1,3.45-1.51,5.68-1.51s4.12.51,5.69,1.51c1.56,1.02,2.72,2.4,3.47,4.16.75,1.75,1.11,3.79,1.11,6.13s-.37,4.38-1.11,6.13c-.75,1.75-1.91,3.14-3.47,4.14-1.56,1.02-3.46,1.53-5.69,1.53s-4.12-.51-5.68-1.53c-1.58-1-2.74-2.39-3.49-4.14-.75-1.75-1.13-3.79-1.13-6.13Zm3.25,0c0,2.85.61,5.06,1.83,6.64,1.23,1.59,2.96,2.39,5.22,2.39s4-.8,5.22-2.39c1.21-1.58,1.82-3.79,1.82-6.64s-.61-5.06-1.82-6.66c-1.23-1.58-2.96-2.37-5.22-2.37s-4,.8-5.22,2.37c-1.23,1.59-1.83,3.81-1.83,6.66Z"/>
      <path d="m569.46,101.9c0-.11.05-.16.16-.16h4.83c.11,0,.19.05.24.16l9.87,19.57c.11.19.33.16.33-.03v-19.54c0-.11.05-.16.16-.16h2.77c.11,0,.16.05.16.16v22.64c0,.11-.05.16-.16.16h-4.79c-.1,0-.18-.05-.25-.16l-9.89-19.6c-.06-.13-.32-.13-.32.06v19.54c0,.11-.06.16-.17.16h-2.77c-.11,0-.16-.05-.16-.16v-22.64Z"/>
    </g>
  </g>
</svg>